<svg width="25" height="24" viewBox="0 0 25 24" fill="none" xmlns="http://www.w3.org/2000/svg">
<path d="M19.4001 2H18.4001V1C18.4001 0.734784 18.2948 0.48043 18.1073 0.292893C17.9197 0.105357 17.6654 0 17.4001 0C17.1349 0 16.8806 0.105357 16.693 0.292893C16.5055 0.48043 16.4001 0.734784 16.4001 1V2H8.40015V1C8.40015 0.734784 8.29479 0.48043 8.10725 0.292893C7.91972 0.105357 7.66536 0 7.40015 0C7.13493 0 6.88058 0.105357 6.69304 0.292893C6.5055 0.48043 6.40015 0.734784 6.40015 1V2H5.40015C4.07455 2.00159 2.8037 2.52888 1.86637 3.46622C0.929028 4.40356 0.401734 5.67441 0.400146 7L0.400146 19C0.401734 20.3256 0.929028 21.5964 1.86637 22.5338C2.8037 23.4711 4.07455 23.9984 5.40015 24H19.4001C20.7257 23.9984 21.9966 23.4711 22.9339 22.5338C23.8713 21.5964 24.3986 20.3256 24.4001 19V7C24.3986 5.67441 23.8713 4.40356 22.9339 3.46622C21.9966 2.52888 20.7257 2.00159 19.4001 2ZM2.40015 7C2.40015 6.20435 2.71622 5.44129 3.27883 4.87868C3.84144 4.31607 4.6045 4 5.40015 4H19.4001C20.1958 4 20.9589 4.31607 21.5215 4.87868C22.0841 5.44129 22.4001 6.20435 22.4001 7V8H2.40015V7ZM19.4001 22H5.40015C4.6045 22 3.84144 21.6839 3.27883 21.1213C2.71622 20.5587 2.40015 19.7956 2.40015 19V10H22.4001V19C22.4001 19.7956 22.0841 20.5587 21.5215 21.1213C20.9589 21.6839 20.1958 22 19.4001 22Z" fill="#565E71"/>
</svg>
