<svg width="25" height="24" viewBox="0 0 25 24" fill="none" xmlns="http://www.w3.org/2000/svg">
<g clip-path="url(#clip0_93_4272)">
<path d="M24.6001 16V21C24.6001 21.7956 24.284 22.5587 23.7214 23.1213C23.1588 23.6839 22.3957 24 21.6001 24H16.6001C15.1972 23.9985 13.8193 23.6282 12.6047 22.9261C11.3902 22.224 10.3815 21.2149 9.6801 20C10.434 19.9946 11.1853 19.9115 11.9221 19.752C12.4832 20.4536 13.1951 21.02 14.0049 21.4091C14.8147 21.7983 15.7017 22.0002 16.6001 22H21.6001C21.8653 22 22.1197 21.8946 22.3072 21.7071C22.4947 21.5195 22.6001 21.2652 22.6001 21V16C22.5999 15.1012 22.3973 14.214 22.0075 13.4042C21.6176 12.5944 21.0505 11.8827 20.3481 11.322C20.5089 10.5853 20.5934 9.83396 20.6001 9.07995C21.815 9.7814 22.8242 10.79 23.5263 12.0046C24.2283 13.2192 24.5987 14.597 24.6001 16ZM18.5771 9.65095C18.6706 8.36259 18.4857 7.06919 18.0349 5.85865C17.5842 4.6481 16.8781 3.54877 15.9647 2.63537C15.0513 1.72196 13.9519 1.01588 12.7414 0.565107C11.5309 0.114332 10.2375 -0.0705757 8.9491 0.02295C6.66601 0.283682 4.55702 1.37013 3.01927 3.07769C1.48152 4.78526 0.621125 6.99612 0.600098 9.29395L0.600098 14.334C0.600098 16.866 2.1071 18 3.6001 18H9.3001C11.5989 17.9802 13.8111 17.1203 15.5199 15.5825C17.2287 14.0447 18.316 11.935 18.5771 9.65095ZM14.5501 4.05095C15.26 4.76245 15.8089 5.61815 16.1594 6.56014C16.51 7.50213 16.6541 8.50843 16.5821 9.51095C16.3687 11.2946 15.5106 12.9388 14.1694 14.1339C12.8283 15.329 11.0965 15.9927 9.3001 16H3.6001C2.6721 16 2.6001 14.725 2.6001 14.334V9.29395C2.60844 7.49833 3.27275 5.76766 4.46801 4.42763C5.66328 3.0876 7.30709 2.23062 9.0901 2.01795C9.2561 2.00595 9.4221 1.99995 9.5881 1.99995C10.5094 1.99909 11.4218 2.17979 12.2732 2.53171C13.1246 2.88363 13.8983 3.39988 14.5501 4.05095Z" fill="#565E71"/>
</g>
<defs>
<clipPath id="clip0_93_4272">
<rect width="24" height="24" fill="white" transform="translate(0.600098)"/>
</clipPath>
</defs>
</svg>
