<svg width="25" height="24" viewBox="0 0 25 24" fill="none" xmlns="http://www.w3.org/2000/svg">
<path d="M12.8 14.9918C11.1432 14.9918 9.80005 16.335 9.80005 17.9918V23.9918H15.8V17.9918C15.8 16.335 14.4569 14.9918 12.8 14.9918Z" fill="black"/>
<path d="M17.8001 17.9922V23.9922H21.8C23.4569 23.9922 24.8 22.649 24.8 20.9922V11.8712C24.8003 11.3517 24.5984 10.8525 24.237 10.4792L15.7391 1.29218C14.2396 -0.330162 11.7089 -0.429771 10.0866 1.06967C10.0095 1.14092 9.93528 1.21512 9.86408 1.29218L1.38106 10.4762C1.00878 10.851 0.799908 11.3579 0.800049 11.8862V20.9922C0.800049 22.649 2.14321 23.9922 3.80005 23.9922H7.80003V17.9922C7.81874 15.2654 10.0203 13.0386 12.6785 12.9745C15.4255 12.9082 17.7791 15.1729 17.8001 17.9922Z" fill="black"/>
<path d="M12.8 14.9918C11.1432 14.9918 9.80005 16.335 9.80005 17.9918V23.9918H15.8V17.9918C15.8 16.335 14.4569 14.9918 12.8 14.9918Z" fill="black"/>
</svg>
