<?xml version="1.0" standalone="no"?>
<!DOCTYPE svg PUBLIC "-//W3C//DTD SVG 20010904//EN"
 "http://www.w3.org/TR/2001/REC-SVG-20010904/DTD/svg10.dtd">
<svg version="1.0" xmlns="http://www.w3.org/2000/svg"
 width="512.000000pt" height="512.000000pt" viewBox="0 0 512.000000 512.000000"
 preserveAspectRatio="xMidYMid meet">
<metadata>
Created by potrace 1.14, written by Peter Selinger 2001-2017
</metadata>
<g transform="translate(0.000000,512.000000) scale(0.100000,-0.100000)"
fill="#000000" stroke="none">
<path d="M0 2560 l0 -2560 2560 0 2560 0 0 2560 0 2560 -2560 0 -2560 0 0
-2560z m3094 1567 c287 -90 566 -276 758 -508 174 -208 300 -481 349 -752 26
-143 27 -406 3 -540 -123 -693 -649 -1214 -1340 -1328 -115 -19 -406 -16 -524
5 -95 17 -188 40 -225 56 -11 4 -42 16 -70 26 -185 65 -422 218 -565 363 -229
233 -385 527 -447 841 -27 143 -25 488 5 622 97 437 342 792 715 1035 91 59
252 135 357 168 47 15 96 31 110 35 14 5 196 8 405 7 l380 -2 89 -28z"/>
<path d="M2273 2854 c-10 -4 -13 -50 -13 -178 0 -171 0 -173 24 -185 34 -19
66 0 66 40 0 28 1 29 23 15 36 -23 98 -24 111 -2 8 14 8 20 -1 23 -7 3 -23 13
-35 23 l-23 19 40 40 c52 54 53 93 5 149 -19 22 -42 43 -50 45 -25 9 -134 17
-147 11z m151 -110 c22 -21 20 -26 -17 -51 -48 -33 -57 -30 -57 22 0 43 1 45
29 45 16 0 37 -7 45 -16z"/>
<path d="M3166 2825 c-9 -13 -16 -44 -16 -69 0 -25 -4 -47 -9 -51 -10 -6 -14
-3 -79 69 -42 46 -72 55 -72 22 0 -8 29 -46 65 -85 71 -77 70 -74 39 -164 -12
-32 -11 -39 1 -43 29 -12 42 5 64 82 12 44 29 93 36 109 52 114 55 140 23 149
-33 9 -34 8 -52 -19z"/>
<path d="M3317 2838 c-37 -28 -67 -106 -67 -173 0 -63 25 -139 57 -172 14 -15
123 -18 123 -3 0 6 6 10 14 10 7 0 25 9 39 20 l26 20 3 -27 c3 -26 6 -28 43
-26 87 4 130 17 133 40 3 20 -2 23 -47 29 -50 6 -51 7 -51 40 0 18 -4 36 -10
39 -6 3 -10 50 -10 106 l0 99 -35 0 -35 0 0 -122 0 -123 -34 -1 c-19 0 -41 -8
-51 -17 -19 -19 -42 -21 -79 -7 -51 19 -57 139 -10 186 20 20 26 22 53 11 43
-16 65 -1 69 47 l3 36 -58 0 c-33 0 -67 -6 -76 -12z"/>
<path d="M1462 2829 c-128 -26 -150 -259 -31 -323 32 -18 42 -18 78 -8 49 15
97 54 87 70 -10 16 -36 15 -56 -3 -9 -8 -30 -18 -48 -21 -67 -13 -112 91 -78
181 18 45 49 65 102 65 17 0 24 6 24 19 0 22 -30 30 -78 20z"/>
<path d="M2820 2829 c-127 -27 -146 -268 -25 -326 29 -14 41 -14 73 -5 42 13
92 47 92 63 0 21 -33 20 -75 -2 -42 -22 -47 -23 -73 -9 -57 32 -68 163 -17
210 15 14 39 24 62 25 29 2 39 7 41 22 4 25 -26 33 -78 22z"/>
<path d="M3685 2819 c-3 -13 -1 -62 6 -109 6 -47 13 -110 16 -140 7 -77 13
-82 92 -74 74 7 85 13 75 38 -5 14 -17 17 -58 14 l-51 -3 0 35 c0 28 4 35 25
40 15 4 26 14 28 27 3 17 -3 22 -25 25 -23 2 -29 10 -36 41 -14 57 -5 67 53
67 47 0 50 2 50 25 0 22 -4 25 -39 25 -21 0 -59 3 -84 6 -42 6 -46 5 -52 -17z"/>
<path d="M1818 2673 c-2 -87 -2 -164 0 -170 2 -7 13 -13 23 -13 19 0 19 8 17
167 -3 147 -5 168 -20 171 -14 3 -17 -14 -20 -155z"/>
<path d="M1950 2816 c-66 -37 -92 -172 -47 -250 33 -59 72 -78 142 -70 84 10
141 74 73 82 -14 2 -41 -6 -59 -17 -45 -27 -70 -26 -99 4 -32 34 -40 125 -15
171 17 32 78 65 92 50 9 -8 33 14 33 30 0 19 -86 18 -120 0z"/>
<path d="M2531 2816 c-12 -14 -4 -295 9 -316 4 -7 31 -8 78 -4 68 6 72 8 72
31 0 23 -3 24 -52 21 l-53 -3 -3 38 c-3 31 0 37 16 37 24 0 49 27 36 40 -5 4
-20 10 -34 12 -23 3 -25 7 -25 53 l0 50 55 5 c53 5 56 8 52 40 -3 16 -137 13
-151 -4z"/>
<path d="M1625 2808 c-3 -7 -2 -78 2 -158 l8 -145 80 0 c73 0 80 2 80 20 0 17
-8 20 -57 23 l-56 3 -6 92 c-4 51 -7 110 -9 132 -1 29 -7 41 -20 43 -9 2 -19
-2 -22 -10z"/>
<path d="M1943 2420 c-19 -8 -23 -17 -23 -50 0 -36 3 -40 24 -40 13 0 26 7 30
15 7 19 26 20 26 1 0 -11 33 -14 169 -15 l169 -2 0 51 0 50 -43 0 c-25 0 -45
-5 -48 -12 -4 -10 -6 -10 -6 0 -1 8 -22 12 -71 12 -55 0 -71 -3 -79 -17 -9
-17 -10 -17 -16 0 -8 19 -35 23 -52 6 -8 -8 -13 -8 -17 0 -8 13 -32 13 -63 1z"/>
<path d="M2392 2383 l3 -48 40 0 c40 0 40 0 39 39 -2 51 -27 68 -35 23 l-6
-32 -2 33 c-1 25 -5 32 -22 32 -18 0 -20 -5 -17 -47z"/>
<path d="M3240 2402 c0 -39 27 -74 53 -70 19 3 22 11 25 51 3 41 1 47 -17 47
-10 0 -22 -6 -24 -12 -4 -10 -6 -10 -6 0 -2 26 -31 12 -31 -16z"/>
<path d="M3376 2423 c-8 -8 -8 -57 0 -77 5 -12 20 -16 60 -16 52 0 54 1 55 28
l1 27 7 -25 c4 -14 12 -25 19 -24 35 3 42 5 56 20 20 20 20 26 -3 52 -24 29
-59 28 -71 0 l-9 -23 0 22 c-1 19 -6 22 -55 22 -30 0 -57 -3 -60 -6z m186 -55
c-15 -15 -26 -4 -18 18 5 13 9 15 18 6 9 -9 9 -15 0 -24z"/>
<path d="M1360 2396 c0 -8 7 -16 15 -20 24 -9 18 -25 -7 -19 -20 4 -20 3 -6
-6 9 -6 23 -8 32 -5 19 7 21 30 4 37 -10 4 -9 8 2 16 12 9 10 11 -12 11 -17 0
-28 -5 -28 -14z"/>
<path d="M1460 2396 c0 -8 -2 -20 -5 -28 -4 -9 4 -13 24 -14 28 -1 28 0 19 27
-10 30 -38 40 -38 15z"/>
<path d="M1545 2390 c2 -14 5 -28 5 -32 0 -20 28 -5 32 17 5 26 -5 34 -18 13
-5 -8 -10 -6 -16 8 -7 15 -7 14 -3 -6z"/>
<path d="M1630 2381 c0 -30 19 -45 45 -35 9 4 15 19 15 35 0 26 -4 29 -30 29
-26 0 -30 -3 -30 -29z m50 -1 c0 -21 -24 -28 -35 -10 -8 14 3 30 21 30 8 0 14
-9 14 -20z"/>
<path d="M1733 2373 l-11 -43 69 0 c69 0 69 0 69 28 0 15 -4 32 -8 38 -9 15
-62 15 -62 0 0 -7 -6 -21 -14 -31 -13 -19 -15 -18 -23 15 l-9 35 -11 -42z"/>
<path d="M2511 2378 c0 -25 2 -28 8 -15 6 17 8 17 20 3 17 -20 31 -21 31 -2 0
12 -40 46 -55 46 -3 0 -5 -15 -4 -32z"/>
<path d="M2661 2378 c0 -28 2 -30 11 -17 11 15 13 15 29 -5 18 -21 18 -21 19
19 0 31 -3 37 -11 25 -8 -11 -12 -12 -16 -2 -10 26 -33 12 -32 -20z"/>
<path d="M2767 2403 c-27 -26 20 -76 49 -52 18 15 14 51 -6 57 -13 5 -13 3 -1
-11 11 -14 11 -20 1 -32 -17 -20 -33 -8 -27 21 4 23 -3 31 -16 17z"/>
<path d="M2871 2382 c-1 -37 20 -52 44 -32 17 14 21 60 5 60 -5 0 -10 -13 -10
-30 0 -37 -27 -31 -33 8 -4 24 -4 23 -6 -6z"/>
<path d="M3007 2396 c-6 -15 -10 -16 -22 -6 -20 17 -21 -8 -1 -36 14 -18 15
-18 26 10 6 16 9 34 7 40 -2 5 -6 2 -10 -8z"/>
<path d="M3054 2396 c-12 -30 1 -51 31 -54 25 -2 27 -1 12 8 -12 8 -15 18 -11
36 5 18 2 24 -10 24 -9 0 -19 -6 -22 -14z"/>
<path d="M3156 2388 c-8 -33 -9 -33 23 -34 28 -1 28 0 19 27 -12 35 -33 38
-42 7z"/>
<path d="M3620 2401 c0 -19 12 -41 20 -36 5 3 11 1 15 -5 11 -18 25 -10 25 15
0 17 -4 23 -14 19 -8 -3 -17 -1 -21 5 -8 13 -25 14 -25 2z"/>
<path d="M3720 2375 c0 -24 5 -35 14 -35 32 0 46 13 46 41 0 26 -4 29 -30 29
-28 0 -30 -3 -30 -35z m50 5 c0 -11 -7 -20 -15 -20 -8 0 -15 9 -15 20 0 11 7
20 15 20 8 0 15 -9 15 -20z"/>
<path d="M3822 2378 c2 -20 9 -34 19 -36 12 -2 14 5 11 33 -6 47 -35 50 -30 3z"/>
</g>
</svg>
